<svg width="346" viewBox="0 0 346 115" fill="none" xmlns="http://www.w3.org/2000/svg">
<path d="M344.5 35.2973L342.534 49.2867L340.569 55.26L337.62 59.2422L336.146 25.3933L333.689 39.3311L331.723 1.5L328.775 12.9489L327.792 37.8378L325.335 39.3311L322.878 59.2422L315.507 34.8511L311.085 47.2956L307.153 50.2822L305.188 68.2022L302.731 64.7178L300.765 100.06L296.834 87.1178L292.903 113.5L291.428 108.024L288.48 106.531L286.514 97.5711L283.566 94.5844L282.583 85.6244L279.635 81.6422L278.652 76.1667L276.195 72.1844L274.721 59.2422L271.772 55.26L270.298 43.8111L267.841 47.2956L265.875 40.3267L260.47 57.7489L256.539 62.7267H251.625L249.659 73.6778L247.693 76.1667L242.288 63.2244L238.848 60.2378L237.374 70.6911L235.408 64.7178L232.951 48.2911L231.477 60.2378L229.511 59.2422L224.597 88.1133L223.123 75.1711L220.175 72.1844L219.192 66.7089L212.312 57.7489L210.347 51.2778L205.433 59.2422L202.484 54.7622L200.519 64.7178L197.57 67.7044L195.113 64.7178L194.13 60.2378L192.165 67.7044L190.199 60.2378L185.777 64.7178L177.423 60.2378L173.983 64.7178L172.017 61.2333L167.595 58.7444L162.189 62.7267L159.732 67.7044L157.275 63.2244L154.818 67.7044L151.378 64.7178L145.973 67.7044L144.007 71.6867L139.093 61.2333L135.653 62.7267L132.213 59.2422L128.282 66.7089L125.334 69.6956L122.877 77.66L117.471 70.6911L116.489 73.18L113.049 69.6956L110.1 75.6689L106.169 77.66L99.2894 73.18L97.3238 79.1533L92.9012 66.7089L88.9699 65.7133L85.0387 52.2733L84.0559 62.7267L79.6333 61.2333L74.7192 64.7178L70.2966 57.2511L69.3138 64.7178L64.8911 70.6911L61.4513 63.2244L60.9599 56.7533L58.5029 55.7578L56.5373 57.7489L54.5717 55.7578L52.1147 57.7489H49.6576L46.2178 53.7667L42.2866 59.2422L39.3381 53.2689L38.3553 48.2911L35.8983 46.3L33.9327 48.2911L31.4757 40.3267L25.5788 50.2822L14.2765 35.3489L7.88828 36.8422L2.97424 34.3533L1.5 36.8422" stroke="#33C66D" stroke-width="1.5" stroke-miterlimit="15.9925" stroke-linecap="round" stroke-linejoin="round"/>
</svg>
